<svg width="19" height="18" viewBox="0 0 19 18" fill="none" xmlns="http://www.w3.org/2000/svg">
    <path
        d="M11.9482 5.71308L12.0656 5.97634L12.3523 6.00657L17.2145 6.51917C17.645 6.56456 17.8184 7.09841 17.4966 7.38803L13.8655 10.6568L13.651 10.8499L13.7109 11.1322L14.7254 15.9101C14.8153 16.3334 14.3616 16.6632 13.9867 16.4472L9.7496 14.0061L9.5 13.8623L9.2504 14.0061L5.01327 16.4472C4.63836 16.6632 4.1847 16.3334 4.27457 15.9101L5.2891 11.1322L5.34905 10.8499L5.13452 10.6568L1.50338 7.38803C1.18164 7.09841 1.35497 6.56456 1.78547 6.51917L6.64766 6.00657L6.93436 5.97634L7.05184 5.71308L9.0434 1.25016C9.21966 0.855168 9.78034 0.85517 9.9566 1.25016L11.9482 5.71308Z"
        stroke="#1C1C1C" />
</svg>